<svg width="529" height="409" viewBox="0 0 529 409" fill="none" xmlns="http://www.w3.org/2000/svg">
<path d="M464.318 344.16C467.044 346.892 467.052 351.325 464.234 353.962C436.515 379.912 402.087 397.635 364.798 405.071C325.226 412.961 284.209 408.911 246.933 393.433C209.656 377.955 177.796 351.744 155.38 318.114C134.259 286.427 122.417 249.494 121.119 211.499C120.988 207.635 124.134 204.5 128 204.5H180.734C184.6 204.5 187.715 207.636 187.912 211.497C189.169 236.256 197.08 260.263 210.867 280.948C225.95 303.576 247.388 321.213 272.471 331.628C297.553 342.043 325.152 344.768 351.779 339.458C376.111 334.607 398.631 323.246 416.981 306.639C419.852 304.041 424.282 304.026 427.018 306.768L464.318 344.16Z" fill="url(#paint0_linear_165_3)"/>
<path d="M401.368 280.368C404.101 283.101 404.115 287.551 401.22 290.114C386.002 303.584 367.45 312.809 347.435 316.79C325.128 321.228 302.005 318.95 280.991 310.246C259.978 301.542 242.017 286.802 229.381 267.891C218.044 250.923 211.449 231.282 210.213 210.996C209.978 207.137 213.134 204 217 204H265.871C269.737 204 272.823 207.148 273.341 210.979C274.399 218.814 277.231 226.337 281.657 232.961C287.385 241.534 295.526 248.215 305.051 252.16C314.577 256.106 325.058 257.138 335.17 255.127C342.983 253.573 350.305 250.255 356.594 245.464C359.669 243.121 364.076 243.076 366.81 245.81L401.368 280.368Z" fill="url(#paint1_linear_165_3)"/>
<path d="M273.9 104H8.41819C4.04063 104 0.730959 107.98 1.56131 112.278C8.82119 149.857 15.9873 170.475 52.7213 177.866C53.162 177.955 53.6235 178 54.073 178H245.55C249.163 178 252.163 175.245 252.634 171.663C255.755 147.935 263.39 132.794 278.936 116.923C283.499 112.265 280.42 104 273.9 104Z" fill="url(#paint2_linear_165_3)"/>
<path d="M347.668 11.7232L72.6246 9.07346C68.5232 9.03394 65.2524 12.5246 65.6645 16.6055C68.8539 48.1893 76.8499 65.1048 111.7 82.0108C112.635 82.4644 113.68 82.7027 114.719 82.7027H347.086C347.917 82.7027 348.762 82.858 349.541 83.1486C372.951 91.8846 383.008 97.1053 388.254 102.054C391.732 105.335 397.333 106.616 400.816 103.341L440.425 66.1055C443.421 63.2896 443.356 58.5011 440.258 55.7986C414.972 33.7417 396.417 21.6442 349.015 11.8678C348.575 11.7771 348.117 11.7276 347.668 11.7232Z" fill="url(#paint3_linear_165_3)"/>
<path d="M337.736 179.32C336.093 179.32 334.568 179.032 333.16 178.456C331.752 177.859 330.515 177.037 329.448 175.992C328.403 174.925 327.592 173.688 327.016 172.28C326.461 170.872 326.184 169.357 326.184 167.736C326.184 166.115 326.461 164.6 327.016 163.192C327.592 161.784 328.403 160.557 329.448 159.512C330.515 158.467 331.741 157.645 333.128 157.048C334.536 156.451 336.072 156.152 337.736 156.152C339.528 156.152 341.107 156.451 342.472 157.048C343.837 157.624 345.043 158.424 346.088 159.448L343.144 162.392C342.525 161.709 341.768 161.176 340.872 160.792C339.976 160.408 338.931 160.216 337.736 160.216C336.691 160.216 335.731 160.397 334.856 160.76C334.003 161.101 333.256 161.613 332.616 162.296C331.976 162.957 331.485 163.757 331.144 164.696C330.803 165.613 330.632 166.627 330.632 167.736C330.632 168.867 330.803 169.891 331.144 170.808C331.485 171.725 331.976 172.525 332.616 173.208C333.256 173.869 334.003 174.381 334.856 174.744C335.731 175.107 336.691 175.288 337.736 175.288C338.995 175.288 340.072 175.096 340.968 174.712C341.885 174.328 342.653 173.784 343.272 173.08L346.216 176.024C345.171 177.069 343.955 177.88 342.568 178.456C341.181 179.032 339.571 179.32 337.736 179.32ZM360.442 179V156.504H364.794V179H360.442ZM363.642 179V175.128H375.098V179H363.642ZM389.423 179V156.504H393.775V179H389.423ZM420.023 179.32C418.381 179.32 416.855 179.032 415.447 178.456C414.039 177.859 412.802 177.037 411.735 175.992C410.69 174.925 409.879 173.688 409.303 172.28C408.749 170.872 408.471 169.357 408.471 167.736C408.471 166.115 408.749 164.6 409.303 163.192C409.879 161.784 410.69 160.557 411.735 159.512C412.802 158.467 414.029 157.645 415.415 157.048C416.823 156.451 418.359 156.152 420.023 156.152C421.815 156.152 423.394 156.451 424.759 157.048C426.125 157.624 427.33 158.424 428.375 159.448L425.431 162.392C424.813 161.709 424.055 161.176 423.159 160.792C422.263 160.408 421.218 160.216 420.023 160.216C418.978 160.216 418.018 160.397 417.143 160.76C416.29 161.101 415.543 161.613 414.903 162.296C414.263 162.957 413.773 163.757 413.431 164.696C413.09 165.613 412.919 166.627 412.919 167.736C412.919 168.867 413.09 169.891 413.431 170.808C413.773 171.725 414.263 172.525 414.903 173.208C415.543 173.869 416.29 174.381 417.143 174.744C418.018 175.107 418.978 175.288 420.023 175.288C421.282 175.288 422.359 175.096 423.255 174.712C424.173 174.328 424.941 173.784 425.559 173.08L428.503 176.024C427.458 177.069 426.242 177.88 424.855 178.456C423.469 179.032 421.858 179.32 420.023 179.32ZM456.329 179L446.569 167.256L456.073 156.504H461.513L450.921 168.184V166.168L461.865 179H456.329ZM442.729 179V156.504H447.081V179H442.729ZM474.488 176.504L482.968 167.64C483.566 167 484.046 166.435 484.408 165.944C484.792 165.432 485.07 164.952 485.24 164.504C485.411 164.035 485.496 163.565 485.496 163.096C485.496 162.157 485.187 161.421 484.568 160.888C483.971 160.355 483.192 160.088 482.232 160.088C481.251 160.088 480.376 160.344 479.608 160.856C478.862 161.368 478.158 162.179 477.496 163.288L474.52 160.76C475.416 159.245 476.526 158.104 477.848 157.336C479.192 156.547 480.728 156.152 482.456 156.152C483.928 156.152 485.208 156.44 486.296 157.016C487.406 157.592 488.259 158.392 488.856 159.416C489.454 160.44 489.752 161.635 489.752 163C489.752 163.917 489.635 164.749 489.4 165.496C489.187 166.243 488.814 166.989 488.28 167.736C487.768 168.461 487.054 169.283 486.136 170.2L479.96 176.504H474.488ZM474.488 179V176.504L478.2 175.224H490.232V179H474.488ZM337.736 211.32C336.093 211.32 334.568 211.032 333.16 210.456C331.752 209.859 330.515 209.037 329.448 207.992C328.403 206.925 327.592 205.688 327.016 204.28C326.461 202.872 326.184 201.357 326.184 199.736C326.184 198.115 326.461 196.6 327.016 195.192C327.592 193.784 328.403 192.557 329.448 191.512C330.515 190.467 331.741 189.645 333.128 189.048C334.536 188.451 336.072 188.152 337.736 188.152C339.528 188.152 341.107 188.451 342.472 189.048C343.837 189.624 345.043 190.424 346.088 191.448L343.144 194.392C342.525 193.709 341.768 193.176 340.872 192.792C339.976 192.408 338.931 192.216 337.736 192.216C336.691 192.216 335.731 192.397 334.856 192.76C334.003 193.101 333.256 193.613 332.616 194.296C331.976 194.957 331.485 195.757 331.144 196.696C330.803 197.613 330.632 198.627 330.632 199.736C330.632 200.867 330.803 201.891 331.144 202.808C331.485 203.725 331.976 204.525 332.616 205.208C333.256 205.869 334.003 206.381 334.856 206.744C335.731 207.107 336.691 207.288 337.736 207.288C338.995 207.288 340.072 207.096 340.968 206.712C341.885 206.328 342.653 205.784 343.272 205.08L346.216 208.024C345.171 209.069 343.955 209.88 342.568 210.456C341.181 211.032 339.571 211.32 337.736 211.32ZM363.642 201.592V198.2H368.858C369.924 198.2 370.746 197.933 371.322 197.4C371.919 196.845 372.218 196.088 372.218 195.128C372.218 194.253 371.919 193.528 371.322 192.952C370.746 192.355 369.924 192.056 368.858 192.056H363.642V188.504H369.242C370.692 188.504 371.962 188.792 373.05 189.368C374.159 189.923 375.012 190.691 375.61 191.672C376.228 192.653 376.538 193.784 376.538 195.064C376.538 196.387 376.228 197.539 375.61 198.52C375.012 199.48 374.159 200.237 373.05 200.792C371.94 201.325 370.65 201.592 369.178 201.592H363.642ZM360.442 211V188.504H364.794V211H360.442ZM372.73 211L365.306 201.272L369.306 200.024L378.01 211H372.73ZM389.29 211L398.346 188.504H401.898L410.922 211H406.282L399.306 192.536H400.906L393.834 211H389.29ZM394.09 206.808V203.16H406.186V206.808H394.09ZM424.779 211V188.504H429.131V211H424.779ZM427.979 201.784V197.912H439.307V201.784H427.979ZM427.979 192.344V188.504H439.851V192.344H427.979ZM459.328 211V188.984H463.712V211H459.328ZM452.16 192.376V188.504H470.88V192.376H452.16ZM485.58 211.32C484.812 211.32 484.182 211.064 483.692 210.552C483.201 210.04 482.956 209.411 482.956 208.664C482.956 207.917 483.201 207.288 483.692 206.776C484.182 206.264 484.812 206.008 485.58 206.008C486.326 206.008 486.945 206.264 487.436 206.776C487.926 207.288 488.172 207.917 488.172 208.664C488.172 209.411 487.926 210.04 487.436 210.552C486.945 211.064 486.326 211.32 485.58 211.32Z" fill="white"/>
<defs>
<linearGradient id="paint0_linear_165_3" x1="208.281" y1="61.2043" x2="459.001" y2="358.049" gradientUnits="userSpaceOnUse">
<stop stop-color="#F8D448"/>
<stop offset="0.515805" stop-color="#F7484D"/>
<stop offset="1" stop-color="#4971F7"/>
</linearGradient>
<linearGradient id="paint1_linear_165_3" x1="259.203" y1="123.418" x2="400.136" y2="290.688" gradientUnits="userSpaceOnUse">
<stop stop-color="#F8D448"/>
<stop offset="0.515805" stop-color="#F7484D"/>
<stop offset="1" stop-color="#4971F7"/>
</linearGradient>
<linearGradient id="paint2_linear_165_3" x1="62.68" y1="115.074" x2="81.4135" y2="203.109" gradientUnits="userSpaceOnUse">
<stop stop-color="#F8D448"/>
<stop offset="0.515805" stop-color="#F7484D"/>
<stop offset="1" stop-color="#4971F7"/>
</linearGradient>
<linearGradient id="paint3_linear_165_3" x1="146.505" y1="24.114" x2="173.225" y2="143.743" gradientUnits="userSpaceOnUse">
<stop stop-color="#F8D448"/>
<stop offset="0.515805" stop-color="#F7484D"/>
<stop offset="1" stop-color="#4971F7"/>
</linearGradient>
</defs>
</svg>
